<?xml version="1.0" encoding="UTF-8"?>
<svg xmlns="http://www.w3.org/2000/svg" viewBox="0 0 1200 720" role="img" aria-labelledby="title-47 desc-47">
<title id="title-47">【年中行事】端午の節句と神社——「鯉のぼり」と「菖蒲」が持つ、本当の厄除けの力の図解</title>
<desc id="desc-47">菖蒲と鯉に託す厄除け。菖蒲、鯉、登竜門を視覚的に示す独自図解。</desc>
<defs><style>@import url('https://fonts.googleapis.com/css2?family=Zen+Kaku+Gothic+New:wght@400;500;700&amp;family=Zen+Old+Mincho:wght@600;700&amp;display=swap');</style><filter id="shadow" x="-20%" y="-20%" width="140%" height="140%"><feDropShadow dx="0" dy="8" stdDeviation="9" flood-color="#24586c" flood-opacity="0.16"/></filter></defs>
<rect width="1200" height="720" fill="#f6fbf9"/>
<path d="M360 575C420 355 515 370 600 175C690 365 790 350 850 575" stroke="#3f8494" stroke-width="18" fill="none"/><path d="M560 320q65-62 130 0q-65 70-130 0Z" fill="#c66b41"/><path d="M690 320l72-42v84Z" fill="#24586c"/><path d="M450 170v330M495 170v330M540 170v330" stroke="#24586c" stroke-width="6"/><path d="M430 160h135" stroke="#24586c" stroke-width="16"/><text x="600" y="650" text-anchor="middle" font-family="'Zen Old Mincho','Shippori Mincho','Noto Serif CJK JP',serif" font-size="30" font-weight="700" fill="#24586c">菖蒲と鯉に託す厄除け</text>
<g transform="translate(72 76)"><rect width="169" height="46" rx="23" fill="#fffdf8" stroke="#24586c" stroke-width="2"/><circle cx="23" cy="23" r="7" fill="#24586c"/><text x="42" y="30" text-anchor="start" font-family="'Zen Kaku Gothic New','Noto Sans CJK JP',sans-serif" font-size="18" font-weight="700" fill="#24586c">端午の節句</text></g>
<text x="1128" y="664" text-anchor="end" font-family="'Zen Kaku Gothic New','Noto Sans CJK JP',sans-serif" font-size="16" letter-spacing="2" fill="#24586c" opacity="0.65">TENMEI MORI · KAMIKUJI SOSHI</text>
</svg>