<?xml version="1.0" encoding="UTF-8"?>
<svg xmlns="http://www.w3.org/2000/svg" viewBox="0 0 1200 720" role="img" aria-labelledby="title-25 desc-25">
<title id="title-25">【季節】なぜ節分に豆を撒くのか？「魔を滅する」言霊の力の図解</title>
<desc id="desc-25">豆で魔を滅し、春を迎える。魔、滅、恵方を視覚的に示す独自図解。</desc>
<defs><style>@import url('https://fonts.googleapis.com/css2?family=Zen+Kaku+Gothic+New:wght@400;500;700&amp;family=Zen+Old+Mincho:wght@600;700&amp;display=swap');</style><filter id="shadow" x="-20%" y="-20%" width="140%" height="140%"><feDropShadow dx="0" dy="8" stdDeviation="9" flood-color="#775319" flood-opacity="0.16"/></filter></defs>
<rect width="1200" height="720" fill="#fffaf0"/>
<ellipse cx="250" cy="180" rx="22" ry="14" fill="#d7a53d" stroke="#775319" stroke-width="3"/><ellipse cx="412" cy="180" rx="26" ry="19" fill="#d7a53d" stroke="#775319" stroke-width="3"/><ellipse cx="530" cy="180" rx="30" ry="14" fill="#d7a53d" stroke="#775319" stroke-width="3"/><ellipse cx="692" cy="180" rx="22" ry="19" fill="#d7a53d" stroke="#775319" stroke-width="3"/><ellipse cx="810" cy="180" rx="26" ry="14" fill="#d7a53d" stroke="#775319" stroke-width="3"/><ellipse cx="972" cy="180" rx="30" ry="19" fill="#d7a53d" stroke="#775319" stroke-width="3"/><ellipse cx="250" cy="275" rx="22" ry="14" fill="#d7a53d" stroke="#775319" stroke-width="3"/><ellipse cx="412" cy="275" rx="26" ry="19" fill="#d7a53d" stroke="#775319" stroke-width="3"/><ellipse cx="530" cy="275" rx="30" ry="14" fill="#d7a53d" stroke="#775319" stroke-width="3"/><ellipse cx="692" cy="275" rx="22" ry="19" fill="#d7a53d" stroke="#775319" stroke-width="3"/><ellipse cx="810" cy="275" rx="26" ry="14" fill="#d7a53d" stroke="#775319" stroke-width="3"/><ellipse cx="972" cy="275" rx="30" ry="19" fill="#d7a53d" stroke="#775319" stroke-width="3"/><ellipse cx="250" cy="370" rx="22" ry="14" fill="#d7a53d" stroke="#775319" stroke-width="3"/><ellipse cx="412" cy="370" rx="26" ry="19" fill="#d7a53d" stroke="#775319" stroke-width="3"/><ellipse cx="530" cy="370" rx="30" ry="14" fill="#d7a53d" stroke="#775319" stroke-width="3"/><ellipse cx="692" cy="370" rx="22" ry="19" fill="#d7a53d" stroke="#775319" stroke-width="3"/><ellipse cx="810" cy="370" rx="26" ry="14" fill="#d7a53d" stroke="#775319" stroke-width="3"/><ellipse cx="972" cy="370" rx="30" ry="19" fill="#d7a53d" stroke="#775319" stroke-width="3"/><ellipse cx="250" cy="465" rx="22" ry="14" fill="#d7a53d" stroke="#775319" stroke-width="3"/><ellipse cx="412" cy="465" rx="26" ry="19" fill="#d7a53d" stroke="#775319" stroke-width="3"/><ellipse cx="530" cy="465" rx="30" ry="14" fill="#d7a53d" stroke="#775319" stroke-width="3"/><ellipse cx="692" cy="465" rx="22" ry="19" fill="#d7a53d" stroke="#775319" stroke-width="3"/><path d="M540 500q60-170 120 0" stroke="#a13831" stroke-width="28" fill="none"/><path d="M555 510h90" stroke="#775319" stroke-width="5"/><text x="600" y="650" text-anchor="middle" font-family="'Zen Old Mincho','Shippori Mincho','Noto Serif CJK JP',serif" font-size="30" font-weight="700" fill="#775319">豆で魔を滅し、春を迎える</text>
<g transform="translate(72 76)"><rect width="150" height="46" rx="23" fill="#fffdf8" stroke="#775319" stroke-width="2"/><circle cx="23" cy="23" r="7" fill="#775319"/><text x="42" y="30" text-anchor="start" font-family="'Zen Kaku Gothic New','Noto Sans CJK JP',sans-serif" font-size="18" font-weight="700" fill="#775319">節分</text></g>
<text x="1128" y="664" text-anchor="end" font-family="'Zen Kaku Gothic New','Noto Sans CJK JP',sans-serif" font-size="16" letter-spacing="2" fill="#775319" opacity="0.65">TENMEI MORI · KAMIKUJI SOSHI</text>
</svg>