<?xml version="1.0" encoding="UTF-8"?>
<svg xmlns="http://www.w3.org/2000/svg" viewBox="0 0 1200 720" role="img" aria-labelledby="title-60 desc-60">
<title id="title-60">【干支・暦】七十二候「土潤溽暑」——土が神様の名を宿す字になったわけの図解</title>
<desc id="desc-60">土と神が結ぶ文字の景色。土 潤 溽 暑、社という字、季節の律儀さを視覚的に示す独自図解。</desc>
<defs><style>@import url('https://fonts.googleapis.com/css2?family=Zen+Kaku+Gothic+New:wght@400;500;700&amp;family=Zen+Old+Mincho:wght@600;700&amp;display=swap');</style><filter id="shadow" x="-20%" y="-20%" width="140%" height="140%"><feDropShadow dx="0" dy="8" stdDeviation="9" flood-color="#5f4c32" flood-opacity="0.16"/></filter></defs>
<rect width="1200" height="720" fill="#fbf7ee"/>
<rect x="0" y="0" width="1200" height="720" fill="#eadcc5"/><text x="345" y="370" text-anchor="middle" font-family="'Zen Old Mincho','Shippori Mincho','Noto Serif CJK JP',serif" font-size="250" font-weight="700" fill="#5f4c32">土</text><text x="720" y="370" text-anchor="middle" font-family="'Zen Old Mincho','Shippori Mincho','Noto Serif CJK JP',serif" font-size="250" font-weight="700" fill="#a44a31">社</text><path d="M505 310L575 310" stroke="#5f4c32" stroke-width="7"  stroke-linecap="round" fill="none"/><path d="M210 495C410 420 555 540 720 468S970 438 1090 510" stroke="#a44a31" stroke-width="10" fill="none"/><path d="M210 520C410 445 555 565 720 493S970 463 1090 535" stroke="#5f4c32" stroke-width="3" fill="none" opacity="0.7"/><text x="600" y="570" text-anchor="middle" font-family="'Zen Old Mincho','Shippori Mincho','Noto Serif CJK JP',serif" font-size="32" font-weight="700" fill="#5f4c32">土と神が結ぶ文字の景色</text><text x="600" y="625" text-anchor="middle" font-family="'Zen Old Mincho','Shippori Mincho','Noto Serif CJK JP',serif" font-size="24" font-weight="700" fill="#a44a31">土 潤 溽 暑</text><g transform="translate(70 76)"><rect width="150" height="46" rx="23" fill="#fffdf8" stroke="#5f4c32" stroke-width="2"/><circle cx="23" cy="23" r="7" fill="#5f4c32"/><text x="42" y="30" text-anchor="start" font-family="'Zen Kaku Gothic New','Noto Sans CJK JP',sans-serif" font-size="18" font-weight="700" fill="#5f4c32">七十二候</text></g>
<g transform="translate(72 76)"><rect width="150" height="46" rx="23" fill="#fffdf8" stroke="#5f4c32" stroke-width="2"/><circle cx="23" cy="23" r="7" fill="#5f4c32"/><text x="42" y="30" text-anchor="start" font-family="'Zen Kaku Gothic New','Noto Sans CJK JP',sans-serif" font-size="18" font-weight="700" fill="#5f4c32">七十二候</text></g>
<text x="1128" y="664" text-anchor="end" font-family="'Zen Kaku Gothic New','Noto Sans CJK JP',sans-serif" font-size="16" letter-spacing="2" fill="#5f4c32" opacity="0.65">TENMEI MORI · KAMIKUJI SOSHI</text>
</svg>